<?xml version="1.0" encoding="UTF-8"?>
<svg xmlns="http://www.w3.org/2000/svg" xmlns:xlink="http://www.w3.org/1999/xlink" viewBox="0 0 720.21 227.25">
  <defs>
    <style>
      .cls-1 {
        fill: url(#linear-gradient-2);
      }

      .cls-2 {
        isolation: isolate;
      }

      .cls-3 {
        fill: #e50707;
      }

      .cls-4 {
        fill: #1c53b5;
      }

      .cls-5 {
        fill: url(#linear-gradient);
        mix-blend-mode: multiply;
      }
    </style>
    <linearGradient id="linear-gradient" x1="156.98" y1="38.16" x2="135.61" y2="21.66" gradientUnits="userSpaceOnUse">
      <stop offset="0" stop-color="#fff"/>
      <stop offset=".12" stop-color="#fafcfd"/>
      <stop offset=".25" stop-color="#ecf3f7"/>
      <stop offset=".4" stop-color="#d6e5ee"/>
      <stop offset=".54" stop-color="#b6d2e2"/>
      <stop offset=".7" stop-color="#8db8d1"/>
      <stop offset=".85" stop-color="#5c9abe"/>
      <stop offset="1" stop-color="#2578a8"/>
    </linearGradient>
    <linearGradient id="linear-gradient-2" x1="0" y1="113.9" x2="150.75" y2="113.9" gradientUnits="userSpaceOnUse">
      <stop offset="0" stop-color="#00e1f3"/>
      <stop offset="1" stop-color="#1577cd"/>
    </linearGradient>
  </defs>
  <g class="cls-2">
    <g id="Capa_2" data-name="Capa 2">
      <g id="Capa_1-2" data-name="Capa 1">
        <g>
          <path class="cls-3" d="M203.74,226.96l33.93.04L153.3,2.58c-.66-1.77-2.38-2.76-3.82-2.21l-26.98,10.14c-1.64.62-2.36,2.75-1.61,4.75l76.7,204.02c1.13,3.02,3.44,7.48,6.15,7.67Z"/>
          <path class="cls-5" d="M126.34,32.45l8.4,22.33,32.21-13.21L151.34,0s4.65,29.47-25,32.45Z"/>
          <path class="cls-1" d="M150.6.54h-56.63c-7.72,0-14.63,4.8-17.35,12.04L0,227.25l26.14-.16c3.78-.14,7.09.39,8.41-3.12l24.81-66.17h58.22c3.77,0,6.83-3.07,6.83-6.85v-20.21c0-3.78-3.06-6.85-6.83-6.85h-45.5l32.4-86.41c.99-2.65,3.52-4.4,6.34-4.4h14.79s27.41,2.65,25-32.54Z"/>
          <g>
            <path class="cls-4" d="M269.31,111.61l17.26-69.96h22.57l17.36,69.96h-11.44l-3.78-15.01h-26.86l-3.78,15.01h-11.34ZM295.35,51.14l-8.68,35.44h22.37l-8.58-35.44h-5.11Z"/>
            <path class="cls-4" d="M346.73,89.24c0,9.06,4.76,13.58,14.3,13.58s14.3-4.53,14.3-13.58v-47.59h11.44v47.39c0,8.24-2.16,14.25-6.49,18.03-4.33,3.78-10.76,5.67-19.3,5.67s-14.96-1.89-19.25-5.67c-4.29-3.78-6.43-9.79-6.43-18.03v-47.39h11.44v47.59Z"/>
            <path class="cls-4" d="M395.54,51.76v-10.11h51.07v10.11h-19.71v59.85h-11.44v-59.85h-19.92Z"/>
            <path class="cls-4" d="M502.32,104.15c-4.19,5.72-11.56,8.58-22.11,8.58s-17.94-2.88-22.16-8.63c-4.22-5.75-6.33-14.79-6.33-27.12s2.13-21.48,6.38-27.47c4.25-5.99,11.62-8.99,22.11-8.99s17.84,2.98,22.06,8.94c4.22,5.96,6.33,15.13,6.33,27.52s-2.09,21.45-6.28,27.17ZM466.93,96.8c2.31,4.02,6.74,6.03,13.28,6.03s10.94-1.97,13.23-5.92c2.28-3.95,3.42-10.57,3.42-19.86s-1.17-16.05-3.52-20.27c-2.35-4.22-6.72-6.33-13.12-6.33s-10.79,2.11-13.17,6.33c-2.38,4.22-3.58,10.95-3.58,20.17s1.16,15.85,3.47,19.86Z"/>
            <path class="cls-4" d="M521.77,111.61V41.65h43.41v9.91h-32.07v23.59h26.66v9.91h-26.66v26.55h-11.34Z"/>
            <path class="cls-4" d="M587.14,86.69v24.92h-11.34V41.65h26.55c15.8,0,23.69,7.42,23.69,22.26,0,9.94-3.81,16.68-11.44,20.22l11.54,27.47h-12.46l-10.11-24.92h-16.44ZM614.41,64.01c0-8.38-4.02-12.56-12.05-12.56h-15.22v25.43h15.42c4.09,0,7.08-1.17,8.99-3.52,1.91-2.35,2.86-5.46,2.86-9.34Z"/>
            <path class="cls-4" d="M638.92,111.61V41.65h11.34v69.96h-11.34Z"/>
            <path class="cls-4" d="M713.93,104.15c-4.19,5.72-11.56,8.58-22.11,8.58s-17.94-2.88-22.16-8.63c-4.22-5.75-6.33-14.79-6.33-27.12s2.13-21.48,6.38-27.47c4.25-5.99,11.62-8.99,22.11-8.99s17.84,2.98,22.06,8.94c4.22,5.96,6.33,15.13,6.33,27.52s-2.09,21.45-6.28,27.17ZM678.54,96.8c2.31,4.02,6.74,6.03,13.28,6.03s10.94-1.97,13.23-5.92c2.28-3.95,3.42-10.57,3.42-19.86s-1.17-16.05-3.52-20.27c-2.35-4.22-6.72-6.33-13.12-6.33s-10.79,2.11-13.17,6.33c-2.38,4.22-3.58,10.95-3.58,20.17s1.16,15.85,3.47,19.86Z"/>
          </g>
          <g>
            <path class="cls-4" d="M266.9,176.39v-44.18h4.92v44.18h-4.92Z"/>
            <path class="cls-4" d="M282.6,176.39v-44.18h8.88l12.51,37.35,12.51-37.35h8.87v44.18h-4.92v-38.95h-.89l-12.83,37.35h-5.49l-12.83-37.35h-.89v38.95h-4.92Z"/>
            <path class="cls-4" d="M352.38,161.52h-11.24v14.88h-4.92v-44.18h16.15c4.81,0,8.36,1.17,10.66,3.51,2.3,2.34,3.45,5.92,3.45,10.73,0,10.05-4.7,15.07-14.11,15.07ZM341.15,157.17h11.17c6.09,0,9.13-3.58,9.13-10.73,0-3.4-.72-5.91-2.17-7.5-1.45-1.6-3.77-2.39-6.96-2.39h-11.17v20.62Z"/>
            <path class="cls-4" d="M407.23,154.62c0,7.88-1.26,13.58-3.77,17.11-2.51,3.53-7.08,5.3-13.7,5.3s-11.18-1.81-13.69-5.43c-2.51-3.62-3.77-9.31-3.77-17.08s1.28-13.54,3.83-17.3c2.55-3.77,7.09-5.65,13.6-5.65s11.05,1.87,13.63,5.62c2.57,3.75,3.86,9.56,3.86,17.43ZM377.35,154.49c0,6.47.85,11.12,2.55,13.95,1.7,2.83,4.99,4.25,9.86,4.25s8.15-1.38,9.83-4.15c1.68-2.77,2.52-7.41,2.52-13.92s-.87-11.26-2.62-14.24c-1.75-2.98-5.01-4.47-9.8-4.47s-8.04,1.48-9.77,4.44c-1.72,2.96-2.59,7.67-2.59,14.14Z"/>
            <path class="cls-4" d="M421.14,159.47v16.92h-4.92v-44.18h16.34c4.68,0,8.2,1.09,10.57,3.26,2.36,2.17,3.54,5.55,3.54,10.15,0,6.81-2.7,11.09-8.11,12.83l8.49,17.94h-5.43l-7.98-16.92h-12.51ZM432.64,155.13c6,0,9-3.1,9-9.29s-3.02-9.29-9.07-9.29h-11.43v18.58h11.49Z"/>
            <path class="cls-4" d="M450.32,136.62v-4.41h31.92v4.41h-13.47v39.78h-4.85v-39.78h-13.6Z"/>
            <path class="cls-4" d="M481.6,176.39l12.13-44.18h10.73l12.13,44.18h-4.85l-3.19-11.36h-18.9l-3.19,11.36h-4.85ZM497.44,136.42l-6.7,24.2h16.73l-6.7-24.2h-3.32Z"/>
            <path class="cls-4" d="M549.47,175.69c-4.38.89-8.32,1.34-11.81,1.34s-6.31-.48-8.46-1.44c-2.15-.96-3.81-2.45-4.98-4.47-1.17-2.02-1.98-4.34-2.43-6.96-.45-2.62-.67-5.88-.67-9.8s.22-7.2.67-9.86c.45-2.66,1.25-5.01,2.43-7.06,1.17-2.04,2.82-3.53,4.95-4.47,2.13-.94,4.89-1.4,8.3-1.4s7.41.47,12,1.4l-.19,4.15c-4.3-.77-8.13-1.15-11.49-1.15-4.68,0-7.78,1.39-9.29,4.18-1.51,2.79-2.27,7.54-2.27,14.27,0,3.36.14,6.07.41,8.11.28,2.04.82,3.88,1.63,5.52.81,1.64,1.99,2.81,3.54,3.51s3.83,1.05,6.83,1.05,6.54-.38,10.63-1.15l.19,4.21Z"/>
            <path class="cls-4" d="M557.52,176.39v-44.18h4.92v44.18h-4.92Z"/>
            <path class="cls-4" d="M606.36,154.62c0,7.88-1.26,13.58-3.77,17.11-2.51,3.53-7.08,5.3-13.7,5.3s-11.18-1.81-13.69-5.43c-2.51-3.62-3.77-9.31-3.77-17.08s1.28-13.54,3.83-17.3c2.55-3.77,7.09-5.65,13.6-5.65s11.05,1.87,13.63,5.62c2.57,3.75,3.86,9.56,3.86,17.43ZM576.48,154.49c0,6.47.85,11.12,2.55,13.95,1.7,2.83,4.99,4.25,9.86,4.25s8.15-1.38,9.83-4.15c1.68-2.77,2.52-7.41,2.52-13.92s-.87-11.26-2.62-14.24c-1.75-2.98-5.01-4.47-9.8-4.47s-8.04,1.48-9.77,4.44c-1.72,2.96-2.59,7.67-2.59,14.14Z"/>
            <path class="cls-4" d="M615.36,176.39v-44.18h9.19l16.92,39.84h1.34v-39.84h4.85v44.18h-9l-17.17-39.84h-1.21v39.84h-4.92Z"/>
            <path class="cls-4" d="M658.52,176.39v-44.18h26.88v4.34h-21.96v15.26h18.13v4.28h-18.13v15.96h21.96v4.34h-26.88Z"/>
            <path class="cls-4" d="M705.83,135.85c-6.38,0-9.58,2.41-9.58,7.21,0,2.68.73,4.52,2.2,5.52,1.47,1,4.45,2,8.94,3,4.49,1,7.67,2.3,9.54,3.9,1.87,1.6,2.81,4.22,2.81,7.88,0,9.07-4.7,13.6-14.11,13.6-3.11,0-7-.36-11.68-1.09l-2.3-.32.51-4.09c5.79.77,10.19,1.15,13.22,1.15,6.3,0,9.45-2.96,9.45-8.87,0-2.38-.69-4.1-2.08-5.14-1.38-1.04-3.97-1.93-7.76-2.65-4.98-1.06-8.51-2.44-10.6-4.12-2.09-1.68-3.13-4.5-3.13-8.46,0-7.92,4.75-11.88,14.24-11.88,3.11,0,6.83.32,11.17.96l2.17.32-.45,4.15c-5.92-.72-10.11-1.09-12.58-1.09Z"/>
          </g>
        </g>
      </g>
    </g>
  </g>
</svg>